<svg xmlns="http://www.w3.org/2000/svg" viewBox="0 0 16 16" shape-rendering="crispEdges"><rect x="6" y="0" width="4" height="1" fill="rgb(90,61,110)"/><rect x="4" y="1" width="2" height="1" fill="rgb(90,61,110)"/><rect x="6" y="1" width="1" height="1" fill="rgb(255,194,226)"/><rect x="7" y="1" width="2" height="1" fill="rgb(201,167,245)"/><rect x="9" y="1" width="1" height="1" fill="rgb(255,194,226)"/><rect x="10" y="1" width="2" height="1" fill="rgb(90,61,110)"/><rect x="3" y="2" width="1" height="1" fill="rgb(90,61,110)"/><rect x="4" y="2" width="2" height="1" fill="rgb(255,194,226)"/><rect x="6" y="2" width="2" height="1" fill="rgb(201,167,245)"/><rect x="8" y="2" width="4" height="1" fill="rgb(255,194,226)"/><rect x="12" y="2" width="1" height="1" fill="rgb(90,61,110)"/><rect x="2" y="3" width="1" height="1" fill="rgb(90,61,110)"/><rect x="3" y="3" width="2" height="1" fill="rgb(255,194,226)"/><rect x="5" y="3" width="6" height="1" fill="rgb(255,143,199)"/><rect x="11" y="3" width="2" height="1" fill="rgb(255,194,226)"/><rect x="13" y="3" width="1" height="1" fill="rgb(90,61,110)"/><rect x="1" y="4" width="1" height="1" fill="rgb(90,61,110)"/><rect x="2" y="4" width="1" height="1" fill="rgb(255,194,226)"/><rect x="3" y="4" width="10" height="1" fill="rgb(255,143,199)"/><rect x="13" y="4" width="1" height="1" fill="rgb(255,194,226)"/><rect x="14" y="4" width="1" height="1" fill="rgb(90,61,110)"/><rect x="1" y="5" width="1" height="1" fill="rgb(90,61,110)"/><rect x="2" y="5" width="12" height="1" fill="rgb(255,143,199)"/><rect x="14" y="5" width="1" height="1" fill="rgb(90,61,110)"/><rect x="0" y="6" width="1" height="1" fill="rgb(90,61,110)"/><rect x="1" y="6" width="2" height="1" fill="rgb(255,143,199)"/><rect x="3" y="6" width="2" height="1" fill="rgb(30,2,18)"/><rect x="5" y="6" width="6" height="1" fill="rgb(255,143,199)"/><rect x="11" y="6" width="2" height="1" fill="rgb(30,2,18)"/><rect x="13" y="6" width="2" height="1" fill="rgb(255,143,199)"/><rect x="15" y="6" width="1" height="1" fill="rgb(90,61,110)"/><rect x="0" y="7" width="1" height="1" fill="rgb(90,61,110)"/><rect x="1" y="7" width="2" height="1" fill="rgb(255,143,199)"/><rect x="3" y="7" width="2" height="1" fill="rgb(30,2,18)"/><rect x="5" y="7" width="6" height="1" fill="rgb(255,143,199)"/><rect x="11" y="7" width="2" height="1" fill="rgb(30,2,18)"/><rect x="13" y="7" width="2" height="1" fill="rgb(255,143,199)"/><rect x="15" y="7" width="1" height="1" fill="rgb(90,61,110)"/><rect x="0" y="8" width="1" height="1" fill="rgb(90,61,110)"/><rect x="1" y="8" width="1" height="1" fill="rgb(255,143,199)"/><rect x="2" y="8" width="2" height="1" fill="rgb(255,111,176)"/><rect x="4" y="8" width="3" height="1" fill="rgb(255,143,199)"/><rect x="7" y="8" width="2" height="1" fill="rgb(143,29,78)"/><rect x="9" y="8" width="3" height="1" fill="rgb(255,143,199)"/><rect x="12" y="8" width="2" height="1" fill="rgb(255,111,176)"/><rect x="14" y="8" width="1" height="1" fill="rgb(255,143,199)"/><rect x="15" y="8" width="1" height="1" fill="rgb(90,61,110)"/><rect x="0" y="9" width="1" height="1" fill="rgb(90,61,110)"/><rect x="1" y="9" width="1" height="1" fill="rgb(255,143,199)"/><rect x="2" y="9" width="2" height="1" fill="rgb(255,111,176)"/><rect x="4" y="9" width="2" height="1" fill="rgb(255,143,199)"/><rect x="6" y="9" width="4" height="1" fill="rgb(143,29,78)"/><rect x="10" y="9" width="2" height="1" fill="rgb(255,143,199)"/><rect x="12" y="9" width="2" height="1" fill="rgb(255,111,176)"/><rect x="14" y="9" width="1" height="1" fill="rgb(255,143,199)"/><rect x="15" y="9" width="1" height="1" fill="rgb(90,61,110)"/><rect x="0" y="10" width="1" height="1" fill="rgb(90,61,110)"/><rect x="1" y="10" width="6" height="1" fill="rgb(255,143,199)"/><rect x="7" y="10" width="2" height="1" fill="rgb(143,29,78)"/><rect x="9" y="10" width="6" height="1" fill="rgb(255,143,199)"/><rect x="15" y="10" width="1" height="1" fill="rgb(90,61,110)"/><rect x="1" y="11" width="1" height="1" fill="rgb(90,61,110)"/><rect x="2" y="11" width="12" height="1" fill="rgb(255,143,199)"/><rect x="14" y="11" width="1" height="1" fill="rgb(90,61,110)"/><rect x="1" y="12" width="1" height="1" fill="rgb(90,61,110)"/><rect x="2" y="12" width="1" height="1" fill="rgb(240,80,159)"/><rect x="3" y="12" width="10" height="1" fill="rgb(255,143,199)"/><rect x="13" y="12" width="1" height="1" fill="rgb(240,80,159)"/><rect x="14" y="12" width="1" height="1" fill="rgb(90,61,110)"/><rect x="2" y="13" width="1" height="1" fill="rgb(90,61,110)"/><rect x="3" y="13" width="2" height="1" fill="rgb(240,80,159)"/><rect x="5" y="13" width="6" height="1" fill="rgb(255,143,199)"/><rect x="11" y="13" width="2" height="1" fill="rgb(240,80,159)"/><rect x="13" y="13" width="1" height="1" fill="rgb(90,61,110)"/><rect x="3" y="14" width="2" height="1" fill="rgb(90,61,110)"/><rect x="5" y="14" width="6" height="1" fill="rgb(240,80,159)"/><rect x="11" y="14" width="2" height="1" fill="rgb(90,61,110)"/><rect x="5" y="15" width="6" height="1" fill="rgb(90,61,110)"/></svg>